<svg width="240" height="240" viewBox="0 0 240 240" fill="none" xmlns="http://www.w3.org/2000/svg">
  <path d="M120 240c66.274 0 120-53.726 120-120S186.274 0 120 0 0 53.726 0 120s53.726 120 120 120z" fill="#F8F8F8"/>
  <path d="M165.6 89.6h-19.2V76.8c0-14.4-11.52-25.6-25.6-25.6-14.08 0-25.6 11.2-25.6 25.6v12.8H76c-7.04 0-12.8 5.76-12.8 12.8v76.8c0 7.04 5.76 12.8 12.8 12.8h89.6c7.04 0 12.8-5.76 12.8-12.8v-76.8c0-7.04-5.76-12.8-12.8-12.8zm-57.6-12.8c0-7.04 5.76-12.8 12.8-12.8 7.04 0 12.8 5.76 12.8 12.8v12.8h-25.6V76.8zm57.6 102.4H76v-76.8h89.6v76.8z" fill="#FF2D55"/>
  <path d="M120 115.2c-7.04 0-12.8 5.76-12.8 12.8 0 7.04 5.76 12.8 12.8 12.8 7.04 0 12.8-5.76 12.8-12.8 0-7.04-5.76-12.8-12.8-12.8z" fill="#FF2D55"/>
</svg> 