<svg width="24" height="24" viewBox="0 0 24 24" fill="none" xmlns="http://www.w3.org/2000/svg">
  <rect width="24" height="24" rx="12" fill="white"/>
  <path d="M12 6c1.11 0 2-.9 2-2 0-.38-.1-.73-.29-1.03L12 0l-1.71 2.97c-.19.3-.29.65-.29 1.03 0 1.1.9 2 2 2zm4.53 9.92l-1.41-1.41-1.41 1.41c-.39.39-1.02.39-1.41 0L9.1 13.7c-.39-.39-1.02-.39-1.41 0L6.1 15.1c-.39.39-1.02.39-1.41 0L3.1 13.7c-.39-.39-1.02-.39-1.41 0l-1.42 1.41C.39 14.9 0 14.27 0 13.59V3c0-1.1.9-2 2-2h8v2H2v10.55l1.41-1.41c.78-.78 2.05-.78 2.83 0l1.41 1.41 1.41-1.41c.78-.78 2.05-.78 2.83 0l1.41 1.41 1.41-1.41c.78-.78 2.05-.78 2.83 0l1.41 1.41V3h-8V1h8c1.1 0 2 .9 2 2v10.59c0 .68-.39 1.31-.97 1.61l-1.42-1.42c-.39-.39-1.02-.39-1.41 0z" fill="#21201F"/>
</svg> 